[Header]
FileType HTR
DataType HTRS
FileVersion 1
NumSegments 22
NumFrames 8
DataFrameRate 24
EulerRotationOrder ZYX
CalibrationUnits mm
RotationUnits Degrees
GlobalAxisofGravity Y
BoneLengthAxis Y
ScaleFactor 1.0
[SegmentNames&Hierarchy]
reference	GLOBAL
Hips	reference
Spine	Hips
Spine1	Spine
Neck	Spine1
Head	Neck
LeftShoulder	Spine1
LeftArm	LeftShoulder
LeftForeArm	LeftArm
LeftHand	LeftForeArm
RightShoulder	Spine1
RightArm	RightShoulder
RightForeArm	RightArm
RightHand	RightForeArm
LeftUpLeg	Hips
LeftLeg	LeftUpLeg
LeftFoot	LeftLeg
LeftToeBase	LeftFoot
RightUpLeg	Hips
RightLeg	RightUpLeg
RightFoot	RightLeg
RightToeBase	RightFoot
[BasePosition]
reference	0	0	0	0	0	0	1
Hips	0	0	0	0	0	0	1
Spine	0	0	0	0	-0	90	1
Spine1	0	0	0	0	0	0	1
Neck	0	0	0	-7.352430803	-7.352430803	90	1
Head	0	0	0	0	-0	90	1
LeftShoulder	0	0	0	0	0	0	1
LeftArm	0	0	0	0	0	0	1
LeftForeArm	0	0	0	0	0	0	1
LeftHand	0	0	0	0	0	0	1
RightShoulder	0	0	0	0	-0	180	1
RightArm	0	0	0	0	-0	180	1
RightForeArm	0	0	0	0	-0	180	1
RightHand	0	0	0	0	-0	180	1
LeftUpLeg	0	0	0	0	-0	-90	1
LeftLeg	0	0	0	0	-0	-90	1
LeftFoot	0	0	0	66.57150701	-66.57150701	-90	1
LeftToeBase	0	0	0	0	-90	0	1
RightUpLeg	0	0	0	0	-0	-90	1
RightLeg	0	0	0	0	-0	-90	1
RightFoot	0	0	0	66.57150701	-66.57150701	-90	1
RightToeBase	0	0	0	0	-90	0	1
[reference]
10	0	0	0	0	-0	0	1.0
11	0	0	0	0	-0	0	1.0
12	0	0	0	0	-0	0	1.0
13	0	0	0	0	-0	0	1.0
14	0	0	0	0	-0	0	1.0
15	0	0	0	0	-0	0	1.0
16	0	0	0	0	-0	0	1.0
17	0	0	0	0	-0	0	1.0
[Hips]
10	6.112139702	8.339130402	1.108610034	9.955339432	-103.1546097	-6.223408699	1.0
11	6.112139702	8.339130402	1.108610034	9.980074883	-103.1651154	-6.01708889	1.0
12	6.112139702	8.339130402	1.108610034	10.33332157	-103.2004623	-6.043430805	1.0
13	6.112139702	8.339130402	1.108610034	10.84385681	-103.2832718	-6.330886841	1.0
14	6.112139702	8.339130402	1.099192739	11.42311764	-103.4691086	-6.826114178	1.0
15	6.112139702	8.339130402	1.078132153	12.01478481	-103.4952469	-7.564158916	1.0
16	6.07357502	8.339130402	1.056920171	11.78693008	-103.2469406	-7.647022247	1.0
17	6.024928093	8.327171326	1.035502076	10.39777088	-102.8492889	-6.585334301	1.0
[Spine]
10	0	0.7478299737	0	-7.816117287	-3.676469803	-91.04974365	1.0
11	0	0.7478299737	0	-7.756289482	-3.631885529	-91.05063629	1.0
12	0	0.7478299737	0	-7.726518631	-3.600749731	-91.07492065	1.0
13	0	0.7478299737	0	-7.657476425	-3.568556786	-91.16153717	1.0
14	0	0.7478299737	0	-7.545171738	-3.48253417	-91.18054199	1.0
15	0	0.7478299737	0	-7.256354809	-3.421116352	-91.15254211	1.0
16	0	0.7478299737	0	-6.930784225	-3.364187717	-90.828125	1.0
17	0	0.7478299737	0	-6.524342537	-3.219982862	-90.45681	1.0
[Spine1]
10	0	2.049309969	0	7.845647335	-1.004555941	-2.853588581	1.0
11	0	2.049309969	0	7.592868328	-0.9919223189	-2.758761406	1.0
12	0	2.049309969	0	7.404661179	-0.987129271	-2.907530546	1.0
13	0	2.049309969	0	7.285378456	-0.9745785594	-2.976471424	1.0
14	0	2.049309969	0	7.34031105	-0.9349027872	-3.178133965	1.0
15	0	2.049309969	0	7.361809254	-0.9001729488	-3.407632828	1.0
16	0	2.049309969	0	7.304636478	-0.8896669149	-3.47671175	1.0
17	0	2.049309969	0	7.377985001	-0.844938159	-3.40954423	1.0
[Neck]
10	0	2.231709957	0	0.6484415531	8.458631516	-84.52022552	1.0
11	0	2.231709957	0	0.6539173722	8.521385193	-84.50222015	1.0
12	0	2.231709957	0	0.5096234083	8.643546104	-84.48591614	1.0
13	0	2.231709957	0	0.3427741528	8.652637482	-84.84334564	1.0
14	0	2.231709957	0	-0.1244307756	8.776314735	-84.76538849	1.0
15	0	2.231709957	0	-0.2897010446	8.900405884	-85.00057983	1.0
16	0	2.231709957	0	-0.2739660144	8.958204269	-85.54397583	1.0
17	0	2.231709957	0	-0.6343904138	8.910488129	-86.13401794	1.0
[Head]
10	0	1.413589954	0.1823999882	-11.12617588	1.682867289	-95.9278717	1.0
11	0	1.413589954	0.1823999882	-11.14971542	1.749152184	-96.01899719	1.0
12	0	1.413589954	0.1823999882	-11.18548965	1.867323518	-96.11960602	1.0
13	0	1.413589954	0.1823999882	-11.3848896	1.812476516	-95.39104462	1.0
14	0	1.413589954	0.1823999882	-11.37011147	1.939375639	-95.9669342	1.0
15	0	1.413589954	0.1823999882	-11.30537319	2.056993723	-96.32098389	1.0
16	0	1.413589954	0.1823999882	-11.26140308	2.090100765	-96.50689697	1.0
17	0	1.413589954	0.1823999882	-10.69730663	2.029831409	-96.5411377	1.0
[LeftShoulder]
10	0.3649300039	1.825889945	-0.04271000251	-14.26575661	-9.043462753	5.389049053	1.0
11	0.3649300039	1.825889945	-0.04271000251	-13.97794914	-9.153422356	5.308282852	1.0
12	0.3649300039	1.825889945	-0.04271000251	-14.04500771	-9.107933044	5.517551422	1.0
13	0.3649300039	1.825889945	-0.04271000251	-13.97050285	-9.22163868	5.484971523	1.0
14	0.3649300039	1.825889945	-0.04271000251	-13.96794891	-9.140815735	5.404417992	1.0
15	0.3649300039	1.825889945	-0.04271000251	-13.72163391	-9.026833534	5.319986343	1.0
16	0.3649300039	1.825889945	-0.04271000251	-13.25585079	-9.0115242	5.2338624	1.0
17	0.3649300039	1.825889945	-0.04271000251	-12.15611172	-8.670283318	5.047261238	1.0
[LeftArm]
10	1.24003005	0	0	47.87524414	10.63640404	-82.17500305	1.0
11	1.24003005	0	0	47.71449661	10.48727798	-82.09938812	1.0
12	1.24003005	0	0	47.45307159	10.62541294	-82.02445984	1.0
13	1.24003005	0	0	46.61446381	10.82062435	-81.60342407	1.0
14	1.24003005	0	0	45.73491287	11.26618099	-81.06036377	1.0
15	1.24003005	0	0	44.08150864	11.711936	-80.36579132	1.0
16	1.24003005	0	0	41.99448013	12.43869686	-79.53115845	1.0
17	1.24003005	0	0	39.73920059	12.79888916	-78.35970306	1.0
[LeftForeArm]
10	2.847419977	0	0	-14.75349998	-16.37619972	-2.243103504	1.0
11	2.847419977	0	0	-14.52026463	-16.38306046	-2.286319971	1.0
12	2.847419977	0	0	-14.34496689	-16.9545784	-2.219197989	1.0
13	2.847419977	0	0	-13.97576714	-18.27187157	-2.016176939	1.0
14	2.847419977	0	0	-13.78351879	-20.44780731	-1.260733247	1.0
15	2.847419977	0	0	-13.31640911	-23.76503372	-0.4622848332	1.0
16	2.847419977	0	0	-12.78424072	-29.01060486	0.9621312618	1.0
17	2.847419977	0	0	-13.31721973	-36.82811356	3.40012598	1.0
[LeftHand]
10	2.258270025	0	0	-15.05208588	-5.292016983	-0.5331227183	1.0
11	2.258270025	0	0	-14.83449841	-5.22647953	-0.3363316059	1.0
12	2.258270025	0	0	-14.66541958	-5.431711674	-0.2261928767	1.0
13	2.258270025	0	0	-14.31210041	-5.959956646	0.2240419239	1.0
14	2.258270025	0	0	-14.03880787	-6.958869457	0.4503273368	1.0
15	2.258270025	0	0	-13.46876526	-7.979761124	0.7851517797	1.0
16	2.258270025	0	0	-12.57689095	-9.032551765	0.5226038098	1.0
17	2.258270025	0	0	-12.02081966	-10.2914896	-1.867886782	1.0
[RightShoulder]
10	-0.3646599948	1.825889945	-0.04271000251	-8.886492729	6.979812145	177.0955353	1.0
11	-0.3646599948	1.825889945	-0.04271000251	-8.874822617	6.986861706	177.0086823	1.0
12	-0.3646599948	1.825889945	-0.04271000251	-8.982751846	6.999454975	176.9360046	1.0
13	-0.3646599948	1.825889945	-0.04271000251	-8.936882019	7.168122292	176.9552155	1.0
14	-0.3646599948	1.825889945	-0.04271000251	-8.908865929	7.204896927	176.8539124	1.0
15	-0.3646599948	1.825889945	-0.04271000251	-8.799510956	7.144413948	176.6786041	1.0
16	-0.3646599948	1.825889945	-0.04271000251	-8.545901299	7.244468689	176.4776917	1.0
17	-0.3646599948	1.825889945	-0.04271000251	-8.351461411	7.280207157	176.2767029	1.0
[RightArm]
10	-1.24003005	0	0	53.19441223	-4.740903378	-94.7720108	1.0
11	-1.24003005	0	0	53.20393372	-4.671899796	-94.82032013	1.0
12	-1.24003005	0	0	53.21927643	-4.645353317	-94.97325897	1.0
13	-1.24003005	0	0	53.21478653	-4.594558239	-95.21401978	1.0
14	-1.24003005	0	0	53.45240021	-4.580544949	-95.217453	1.0
15	-1.24003005	0	0	53.23809433	-4.765475273	-95.28179932	1.0
16	-1.24003005	0	0	52.46718979	-4.943849087	-95.78068542	1.0
17	-1.24003005	0	0	51.17878342	-5.098641396	-96.79914856	1.0
[RightForeArm]
10	-2.847419977	0	0	-2.418521166	16.92940521	177.6664734	1.0
11	-2.847419977	0	0	-2.232841015	16.99919319	177.7367859	1.0
12	-2.847419977	0	0	-2.020431757	17.39107895	177.7276154	1.0
13	-2.847419977	0	0	-2.250400782	18.40706062	177.1188049	1.0
14	-2.847419977	0	0	-2.845299006	19.97081757	175.9332581	1.0
15	-2.847419977	0	0	-3.805803299	22.55449295	174.3538818	1.0
16	-2.847419977	0	0	-4.598700523	26.78927994	172.6581421	1.0
17	-2.847419977	0	0	-4.997540474	32.89723587	170.8289795	1.0
[RightHand]
10	-2.258270025	0	0	-2.365123749	8.148131371	175.886795	1.0
11	-2.258270025	0	0	-2.18492794	8.115733147	175.9207458	1.0
12	-2.258270025	0	0	-1.96370244	8.255930901	175.9872894	1.0
13	-2.258270025	0	0	-2.102392197	8.719261169	175.8299103	1.0
14	-2.258270025	0	0	-2.494671106	9.332615852	175.5392761	1.0
15	-2.258270025	0	0	-3.065146446	10.16631699	175.6416931	1.0
16	-2.258270025	0	0	-3.283432961	11.16701126	175.6068115	1.0
17	-2.258270025	0	0	-2.709308147	12.19434929	176.0357819	1.0
[LeftUpLeg]
10	0.9119900465	0	0	1.072198629	-3.680591822	87.52864075	1.0
11	0.9119900465	0	0	1.123486638	-4.047467232	87.66242981	1.0
12	0.9119900465	0	0	0.667350173	-4.335324287	87.78707886	1.0
13	0.9119900465	0	0	-0.1643220484	-4.403372765	87.96749878	1.0
14	0.9119900465	0	0	-1.605211973	-4.099550247	88.03063202	1.0
15	0.9119900465	0	0	-3.962863922	-4.18698597	88.01985168	1.0
16	0.9119900465	0	0	-7.678373814	-5.318587303	88.64710999	1.0
17	0.9119900465	0	0	-12.60238934	-6.651250362	90.43684387	1.0
[LeftLeg]
10	0	-4.371409893	0	4.780366898	0.4857611656	87.64671326	1.0
11	0	-4.371409893	0	4.344464302	0.9475753903	87.61683655	1.0
12	0	-4.371409893	0	4.7697649	0.3797972798	87.43377686	1.0
13	0	-4.371409893	0	6.265944481	-0.178255707	87.02038574	1.0
14	0	-4.371409893	0	9.528740883	-1.110035777	86.55367279	1.0
15	0	-4.371409893	0	15.57578468	-1.312836647	86.02931213	1.0
16	0	-4.371409893	0	24.60476494	0.1414312869	84.86061096	1.0
17	0	-4.371409893	0	35.93819427	0.3769826591	80.0364151	1.0
[LeftFoot]
10	0	-3.918009996	0	-103.189621	117.4985962	-41.00508118	1.0
11	0	-3.918009996	0	-102.9878922	117.415596	-41.05500793	1.0
12	0	-3.918009996	0	-101.2180634	117.520134	-38.78420258	1.0
13	0	-3.918009996	0	-99.64959717	117.2489929	-36.05880737	1.0
14	0	-3.918009996	0	-98.41445923	116.6846313	-33.29973602	1.0
15	0	-3.918009996	0	-97.52619934	115.4140854	-30.99859238	1.0
16	0	-3.918009996	0	-95.62607574	113.0588074	-28.32660675	1.0
17	0	-3.918009996	0	-84.36340332	113.4305725	-17.61839294	1.0
[LeftToeBase]
10	0	-0.5927900076	1.367989898	0	0	0	1.0
11	0	-0.5927900076	1.367989898	0	0	0	1.0
12	0	-0.5927900076	1.367989898	0	0	0	1.0
13	0	-0.5927900076	1.367989898	0	0	0	1.0
14	0	-0.5927900076	1.367989898	0	0	0	1.0
15	0	-0.5927900076	1.367989898	0	0	0	1.0
16	0	-0.5927900076	1.367989898	0	0	0	1.0
17	0	-0.5927900076	1.367989898	0	0	0	1.0
[RightUpLeg]
10	-0.9119900465	0	0	5.026587486	-17.45945168	90.31282043	1.0
11	-0.9119900465	0	0	5.124418736	-17.32717514	90.33838654	1.0
12	-0.9119900465	0	0	5.018636703	-17.23735237	90.33975983	1.0
13	-0.9119900465	0	0	4.687939167	-17.02746582	90.49465179	1.0
14	-0.9119900465	0	0	4.411725998	-16.87696457	90.56003571	1.0
15	-0.9119900465	0	0	4.626447678	-16.82694244	90.47039795	1.0
16	-0.9119900465	0	0	5.190882683	-16.53354454	90.33586884	1.0
17	-0.9119900465	0	0	5.954503536	-16.7878418	90.41651154	1.0
[RightLeg]
10	0	-4.371409893	0	2.415308714	-4.283529758	91.47447968	1.0
11	0	-4.371409893	0	1.970586181	-4.221684933	91.81982422	1.0
12	0	-4.371409893	0	1.680841446	-4.023815155	92.17284393	1.0
13	0	-4.371409893	0	1.950922251	-3.992007256	92.03929138	1.0
14	0	-4.371409893	0	2.48883462	-3.947454453	91.71401978	1.0
15	0	-4.371409893	0	2.89201355	-3.674929142	91.26439667	1.0
16	0	-4.371409893	0	3.175628662	-3.605078697	91.54520416	1.0
17	0	-4.371409893	0	3.39036274	-3.577304363	91.68350983	1.0
[RightFoot]
10	0	-3.918009996	0	20.82959366	64.34844971	77.53291321	1.0
11	0	-3.918009996	0	20.9263134	64.35557556	77.16479492	1.0
12	0	-3.918009996	0	20.68795776	63.74247742	76.89470673	1.0
13	0	-3.918009996	0	21.26243973	62.80020523	77.94048309	1.0
14	0	-3.918009996	0	21.21220207	62.29428864	78.54930115	1.0
15	0	-3.918009996	0	21.50461006	61.98168945	79.33313751	1.0
16	0	-3.918009996	0	20.24388123	61.64383698	78.64143372	1.0
17	0	-3.918009996	0	18.6417942	61.47868729	78.09078217	1.0
[RightToeBase]
10	0	-0.5927900076	1.367989898	0	0	0	1.0
11	0	-0.5927900076	1.367989898	0	0	0	1.0
12	0	-0.5927900076	1.367989898	0	0	0	1.0
13	0	-0.5927900076	1.367989898	0	0	0	1.0
14	0	-0.5927900076	1.367989898	0	0	0	1.0
15	0	-0.5927900076	1.367989898	0	0	0	1.0
16	0	-0.5927900076	1.367989898	0	0	0	1.0
17	0	-0.5927900076	1.367989898	0	0	0	1.0
[EndOfFile]
